# xmcd
#
# Track frame offsets:
#	150
#	12802
#	26087
#	43615
#	58417
#	72617
#	87315
#	102740
#	116872
#	128675
#	140067
#	151992
#	163837
#	178040
#	189795
#	204102
#	216562
#	225310
#
# Disc length: 3090
#
# Revision: 6
# Processed by: cddbd v1.5.1PL0 Copyright (c) Steve Scherf et al.
# Submitted via: tcd 2.0b
# Normalized: r4:TSWAP
#
DISCID=080c1012
DTITLE=George Gershwin - The Greatest Songs of George Gershwin
DYEAR=1900
DGENRE=
TTITLE0=Fred Astaire - They All Laughed
TTITLE1=Billie Holiday - Summertime
TTITLE2=Benny Goodman - The Man I Love
TTITLE3=Teddy Wilson - Embraceable You
TTITLE4=Mildred Bailey - They Can't Take That Away from Me
TTITLE5=Woody Herman and the Four Chips - Somebody Loves Me
TTITLE6=Lee Wiley and Bobby Hacket - I've Got a Crush on You
TTITLE7=Dorothy Kirsten - Someone to Watch Over Me
TTITLE8=Mary Martin - I Got Rhythm
TTITLE9=Jo Stafford - Mine
TTITLE10=Doris Day - But Not For Me
TTITLE11=Johnny Mathis - Love Walked In
TTITLE12=Aretha Franklin - It Ain't Necessarily So
TTITLE13=George Benson - A Foggy Day
TTITLE14=Mel Torme - Isn't It a Party
TTITLE15=Andy Williams - Our Love is Here to Stay
TTITLE16=Judy Garland - Swanee
TTITLE17=Tony Bennett - Fascinatin' Rhythm
EXTD=
EXTT0=
EXTT1=
EXTT2=
EXTT3=
EXTT4=
EXTT5=
EXTT6=
EXTT7=
EXTT8=
EXTT9=
EXTT10=
EXTT11=
EXTT12=
EXTT13=
EXTT14=
EXTT15=
EXTT16=
EXTT17=
PLAYORDER=
